HIERARCHY
ROOT Hips
{
	OFFSET 0.000000 97.167313 0.000000
	CHANNELS 6 Xposition Yposition Zposition Xrotation Yrotation Zrotation
	JOINT Spine
	{
		OFFSET 0.000000 13.784798 0.064400
		CHANNELS 3 Xrotation Yrotation Zrotation
		JOINT Spine1
		{
			OFFSET 0.000000 12.037903 0.404700
			CHANNELS 3 Xrotation Yrotation Zrotation
			JOINT Spine2
			{
				OFFSET 0.000000 17.795601 0.420200
				CHANNELS 3 Xrotation Yrotation Zrotation
				JOINT Neck
				{
					OFFSET 0.000000 39.131302 11.954600
					CHANNELS 3 Xrotation Yrotation Zrotation
					JOINT Head
					{
						OFFSET 0.000000 14.456192 15.627699
						CHANNELS 3 Xrotation Yrotation Zrotation
						JOINT HeadTop_End
						{
							OFFSET 0.000000 15.703506 7.603401
							CHANNELS 3 Xrotation Yrotation Zrotation
							End Site
							{
								OFFSET 0.000000 17.447403 0.000000
							}
						}
					}
				}
				JOINT LeftShoulder
				{
					OFFSET 17.399500 24.608795 1.168800
					CHANNELS 3 Xrotation Yrotation Zrotation
					JOINT LeftArm
					{
						OFFSET 18.980635 5.765305 1.818600
						CHANNELS 3 Xrotation Yrotation Zrotation
						JOINT LeftForeArm
						{
							OFFSET 49.290169 0.000000 0.000000
							CHANNELS 3 Xrotation Yrotation Zrotation
							JOINT LeftHand
							{
								OFFSET 31.562012 0.000000 0.000000
								CHANNELS 3 Xrotation Yrotation Zrotation
								JOINT LeftHandThumb1
								{
									OFFSET 6.133995 -4.388519 7.076070
									CHANNELS 3 Xrotation Yrotation Zrotation
									JOINT LeftHandThumb2
									{
										OFFSET 6.037666 -3.485840 3.485847
										CHANNELS 3 Xrotation Yrotation Zrotation
										JOINT LeftHandThumb3
										{
											OFFSET 6.496506 -3.750763 3.750761
											CHANNELS 3 Xrotation Yrotation Zrotation
											JOINT LeftHandThumb4
											{
												OFFSET 5.616882 -3.242905 3.242910
												CHANNELS 3 Xrotation Yrotation Zrotation
												End Site
												{
													OFFSET -1.254608 7.132141 0.375429
												}
											}
										}
									}
								}
								JOINT LeftHandPinky1
								{
									OFFSET 18.920792 -0.453171 -11.426712
									CHANNELS 3 Xrotation Yrotation Zrotation
									JOINT LeftHandPinky2
									{
										OFFSET 4.919586 0.000000 0.000000
										CHANNELS 3 Xrotation Yrotation Zrotation
										JOINT LeftHandPinky3
										{
											OFFSET 5.233047 0.000000 0.000000
											CHANNELS 3 Xrotation Yrotation Zrotation
											JOINT LeftHandPinky4
											{
												OFFSET 5.571716 0.000000 0.000000
												CHANNELS 3 Xrotation Yrotation Zrotation
												End Site
												{
													OFFSET -3.459808 4.342407 -0.466164
												}
											}
										}
									}
								}
								JOINT LeftHandRing1
								{
									OFFSET 22.726120 -0.094986 -6.500475
									CHANNELS 3 Xrotation Yrotation Zrotation
									JOINT LeftHandRing2
									{
										OFFSET 6.408615 0.000000 0.000000
										CHANNELS 3 Xrotation Yrotation Zrotation
										JOINT LeftHandRing3
										{
											OFFSET 6.150223 0.000000 0.000000
											CHANNELS 3 Xrotation Yrotation Zrotation
											JOINT LeftHandRing4
											{
												OFFSET 6.145386 0.000000 0.000000
												CHANNELS 3 Xrotation Yrotation Zrotation
												End Site
												{
													OFFSET -3.671402 4.923981 -0.202372
												}
											}
										}
									}
								}
								JOINT LeftHandMiddle1
								{
									OFFSET 23.373947 0.000000 0.000001
									CHANNELS 3 Xrotation Yrotation Zrotation
									JOINT LeftHandMiddle2
									{
										OFFSET 6.996567 0.000000 0.000000
										CHANNELS 3 Xrotation Yrotation Zrotation
										JOINT LeftHandMiddle3
										{
											OFFSET 7.015945 0.000000 0.000000
											CHANNELS 3 Xrotation Yrotation Zrotation
											JOINT LeftHandMiddle4
											{
												OFFSET 7.721573 0.000000 0.000000
												CHANNELS 3 Xrotation Yrotation Zrotation
												End Site
												{
													OFFSET -4.651108 6.158463 0.251582
												}
											}
										}
									}
								}
								JOINT LeftHandIndex1
								{
									OFFSET 21.310577 -0.490082 6.209344
									CHANNELS 3 Xrotation Yrotation Zrotation
									JOINT LeftHandIndex2
									{
										OFFSET 7.536453 0.000000 0.000000
										CHANNELS 3 Xrotation Yrotation Zrotation
										JOINT LeftHandIndex3
										{
											OFFSET 7.512344 0.000000 0.000000
											CHANNELS 3 Xrotation Yrotation Zrotation
											JOINT LeftHandIndex4
											{
												OFFSET 10.212402 0.000000 0.000001
												CHANNELS 3 Xrotation Yrotation Zrotation
												End Site
												{
													OFFSET -5.180801 8.690506 1.388433
												}
											}
										}
									}
								}
							}
						}
					}
				}
				JOINT RightShoulder
				{
					OFFSET -17.399500 24.608795 1.168800
					CHANNELS 3 Xrotation Yrotation Zrotation
					JOINT RightArm
					{
						OFFSET -18.980635 5.765305 1.818600
						CHANNELS 3 Xrotation Yrotation Zrotation
						JOINT RightForeArm
						{
							OFFSET -49.290169 0.000000 0.000000
							CHANNELS 3 Xrotation Yrotation Zrotation
							JOINT RightHand
							{
								OFFSET -31.562012 0.000000 0.000000
								CHANNELS 3 Xrotation Yrotation Zrotation
								JOINT RightHandThumb1
								{
									OFFSET -6.133995 -4.388519 7.076070
									CHANNELS 3 Xrotation Yrotation Zrotation
									JOINT RightHandThumb2
									{
										OFFSET -6.037666 -3.485840 3.485847
										CHANNELS 3 Xrotation Yrotation Zrotation
										JOINT RightHandThumb3
										{
											OFFSET -6.496506 -3.750763 3.750761
											CHANNELS 3 Xrotation Yrotation Zrotation
											JOINT RightHandThumb4
											{
												OFFSET -5.616882 -3.242905 3.242910
												CHANNELS 3 Xrotation Yrotation Zrotation
												End Site
												{
													OFFSET 1.254608 7.132141 0.375429
												}
											}
										}
									}
								}
								JOINT RightHandIndex1
								{
									OFFSET -21.310577 -0.490082 6.209344
									CHANNELS 3 Xrotation Yrotation Zrotation
									JOINT RightHandIndex2
									{
										OFFSET -7.536453 0.000000 0.000000
										CHANNELS 3 Xrotation Yrotation Zrotation
										JOINT RightHandIndex3
										{
											OFFSET -7.512344 0.000000 0.000000
											CHANNELS 3 Xrotation Yrotation Zrotation
											JOINT RightHandIndex4
											{
												OFFSET -10.212402 0.000000 0.000001
												CHANNELS 3 Xrotation Yrotation Zrotation
												End Site
												{
													OFFSET 5.180801 8.690506 1.388433
												}
											}
										}
									}
								}
								JOINT RightHandMiddle1
								{
									OFFSET -23.373947 0.000000 0.000001
									CHANNELS 3 Xrotation Yrotation Zrotation
									JOINT RightHandMiddle2
									{
										OFFSET -6.996567 0.000000 0.000000
										CHANNELS 3 Xrotation Yrotation Zrotation
										JOINT RightHandMiddle3
										{
											OFFSET -7.015945 0.000000 0.000000
											CHANNELS 3 Xrotation Yrotation Zrotation
											JOINT RightHandMiddle4
											{
												OFFSET -7.721573 0.000000 0.000000
												CHANNELS 3 Xrotation Yrotation Zrotation
												End Site
												{
													OFFSET 4.651108 6.158463 0.251582
												}
											}
										}
									}
								}
								JOINT RightHandRing1
								{
									OFFSET -22.726120 -0.094986 -6.500475
									CHANNELS 3 Xrotation Yrotation Zrotation
									JOINT RightHandRing2
									{
										OFFSET -6.408615 0.000000 0.000000
										CHANNELS 3 Xrotation Yrotation Zrotation
										JOINT RightHandRing3
										{
											OFFSET -6.150223 0.000000 0.000000
											CHANNELS 3 Xrotation Yrotation Zrotation
											JOINT RightHandRing4
											{
												OFFSET -6.145386 0.000000 0.000000
												CHANNELS 3 Xrotation Yrotation Zrotation
												End Site
												{
													OFFSET 3.671402 4.923981 -0.202372
												}
											}
										}
									}
								}
								JOINT RightHandPinky1
								{
									OFFSET -18.920792 -0.453171 -11.426712
									CHANNELS 3 Xrotation Yrotation Zrotation
									JOINT RightHandPinky2
									{
										OFFSET -4.919586 0.000000 0.000000
										CHANNELS 3 Xrotation Yrotation Zrotation
										JOINT RightHandPinky3
										{
											OFFSET -5.233047 0.000000 0.000000
											CHANNELS 3 Xrotation Yrotation Zrotation
											JOINT RightHandPinky4
											{
												OFFSET -5.571716 0.000000 0.000000
												CHANNELS 3 Xrotation Yrotation Zrotation
												End Site
												{
													OFFSET 3.459808 4.342407 -0.466164
												}
											}
										}
									}
								}
							}
						}
					}
				}
			}
		}
	}
	JOINT LeftUpLeg
	{
		OFFSET 19.899099 -7.885101 -3.429500
		CHANNELS 3 Xrotation Yrotation Zrotation
		JOINT LeftLeg
		{
			OFFSET 1.745560 -36.997807 10.304700
			CHANNELS 3 Xrotation Yrotation Zrotation
			JOINT LeftFoot
			{
				OFFSET -1.745558 -29.803308 -13.615400
				CHANNELS 3 Xrotation Yrotation Zrotation
				JOINT LeftToeBase
				{
					OFFSET 1.181900 -18.539904 15.226099
					CHANNELS 3 Xrotation Yrotation Zrotation
					JOINT LeftToe_End
					{
						OFFSET -0.863701 1.402801 16.534700
						CHANNELS 3 Xrotation Yrotation Zrotation
						End Site
						{
							OFFSET 0.000000 16.616566 0.000000
						}
					}
				}
			}
		}
	}
	JOINT RightUpLeg
	{
		OFFSET -19.899099 -7.885101 -3.429500
		CHANNELS 3 Xrotation Yrotation Zrotation
		JOINT RightLeg
		{
			OFFSET -1.745560 -36.997807 10.304700
			CHANNELS 3 Xrotation Yrotation Zrotation
			JOINT RightFoot
			{
				OFFSET 1.745558 -29.803308 -13.615400
				CHANNELS 3 Xrotation Yrotation Zrotation
				JOINT RightToeBase
				{
					OFFSET -1.181900 -18.539904 15.226099
					CHANNELS 3 Xrotation Yrotation Zrotation
					JOINT RightToe_End
					{
						OFFSET 0.863701 1.402801 16.534700
						CHANNELS 3 Xrotation Yrotation Zrotation
						End Site
						{
							OFFSET 0.000000 16.616566 0.000000
						}
					}
				}
			}
		}
	}
}
MOTION
Frames: 4
Frame Time: 0.033333
-2.993546 92.459625 1.380249 -9.019102 -5.412335 8.507893 2.410634 1.350821 -5.206540 4.666352 1.729998 -2.802046 4.685182 1.690012 -2.793392 -2.808717 -0.350890 -5.041354 -1.723880 -2.292231 2.025730 -0.000000 -0.000000 0.000000 4.034696 -13.464700 -7.420061 5.772118 3.721064 -60.112946 11.491896 -25.077091 -5.820562 -8.196608 -3.557909 7.163487 -21.992149 17.035880 -2.008568 5.703901 22.366207 5.520038 0.000014 0.000000 0.000007 0.000001 0.000001 -0.000002 -21.808811 10.569990 -31.866944 1.910803 2.504659 -24.353760 0.000001 0.000001 0.000010 0.000001 -0.000001 -0.000006 -16.256876 8.648356 -21.626585 4.109037 6.928482 -36.756974 0.000000 -0.000003 0.000014 -0.000000 0.000001 0.000009 -8.983049 7.076801 -9.539536 4.275438 7.169705 -39.702401 -0.000010 -0.000001 0.000012 -0.000000 -0.000002 0.000001 -2.899137 12.800588 -7.221987 2.739050 6.814376 -29.837603 0.000002 -0.000002 -0.000015 0.000001 0.000005 0.000002 3.919283 12.466697 7.900371 -3.939744 -11.622611 68.565052 15.857358 12.603478 4.140699 -8.305448 0.914311 -6.259035 -21.991968 -17.035494 2.009259 5.703660 -22.367049 -5.520838 -0.000012 0.000009 -0.000004 -0.000000 0.000002 0.000002 -2.899124 -12.801059 7.221836 2.738677 -6.813208 29.837774 -0.000007 0.000018 -0.000008 -0.000000 -0.000003 -0.000001 -8.983054 -7.076415 9.538924 4.275414 -7.169932 39.704043 0.000014 -0.000005 -0.000009 0.000000 0.000000 -0.000001 -16.256648 -8.649588 21.626343 4.109551 -6.928329 36.756287 -0.000000 0.000001 0.000007 -0.000000 -0.000000 -0.000003 -21.809405 -10.568767 31.865964 1.910737 -2.505943 24.353752 0.000004 -0.000002 0.000002 -0.000000 0.000001 -0.000001 12.069683 14.713083 -13.289250 6.551141 0.121414 -0.220659 -7.827787 -0.818618 3.782865 -0.000000 -0.000002 -0.000001 0.000000 0.000000 0.000000 -4.516805 -14.729612 -25.537196 25.479939 2.030362 1.066290 -12.787737 -11.044286 9.244974 -0.000184 0.000004 0.000473 -0.000000 -0.000001 0.000000 
-2.989581 92.461060 1.402428 -9.028511 -5.487910 8.550689 2.409641 1.351446 -5.228921 4.664313 1.732779 -2.810380 4.683114 1.692429 -2.801863 -2.304371 -0.266692 -5.021675 -1.411780 -2.107263 1.119626 0.000000 0.000000 0.000001 3.936504 -14.015761 -7.578612 5.201479 5.539034 -60.658814 11.107416 -25.697672 -4.990217 -8.183445 -3.853035 6.965920 -22.672625 16.877245 -2.297641 5.630419 22.106088 5.702652 0.000014 0.000000 0.000003 -0.000000 -0.000001 -0.000002 -21.351327 10.483056 -31.582446 1.875487 2.465978 -24.086572 0.000000 0.000001 0.000008 -0.000000 0.000000 -0.000002 -15.944733 8.545661 -21.408533 4.034670 6.891084 -36.321010 0.000001 -0.000006 0.000007 0.000000 0.000000 0.000005 -8.814346 6.949311 -9.333792 4.192802 7.125427 -39.172781 -0.000010 -0.000001 0.000009 -0.000001 -0.000001 0.000004 -2.882057 12.466158 -6.822978 2.692059 6.777050 -29.507811 0.000004 -0.000001 -0.000008 0.000001 0.000003 0.000006 3.865232 12.668672 8.080616 -4.173786 -12.371119 68.446282 21.371698 13.371444 1.502257 -8.397222 0.479297 -7.611084 -21.991985 -17.035475 2.009236 5.703649 -22.367058 -5.520868 -0.000013 0.000002 -0.000005 0.000001 -0.000001 0.000002 -2.899118 -12.801056 7.221835 2.738680 -6.813209 29.837815 -0.000009 0.000012 -0.000003 -0.000001 -0.000003 -0.000001 -8.983064 -7.076408 9.538878 4.275402 -7.169931 39.704081 0.000013 -0.000006 -0.000014 0.000001 0.000000 -0.000006 -16.256646 -8.649583 21.626355 4.109558 -6.928328 36.756301 -0.000000 0.000000 0.000012 0.000000 -0.000000 -0.000003 -21.809410 -10.568759 31.865968 1.910741 -2.505952 24.353745 0.000005 -0.000006 0.000001 -0.000000 -0.000001 -0.000003 12.196493 14.756962 -13.369218 6.442310 0.122022 -0.224724 -7.808187 -0.821692 3.783508 -0.000000 -0.000002 -0.000001 0.000000 0.000001 0.000000 -4.510619 -14.616366 -25.590864 25.516446 2.029572 1.066010 -12.801985 -11.070611 9.265252 -0.000184 0.000005 0.000473 -0.000000 -0.000003 -0.000000 
-2.994617 92.342003 1.407827 -9.120971 -5.612161 8.632194 2.449665 1.343022 -5.262455 4.746382 1.704779 -2.838781 4.765234 1.663366 -2.830032 -1.133411 -0.041833 -5.650014 -1.748841 -1.885840 -0.388886 -0.000000 -0.000000 0.000000 3.540520 -15.513002 -7.223704 5.515567 8.553512 -62.717618 3.850483 -29.273231 -5.539415 -8.193523 -3.843286 8.014687 -24.548648 16.457517 -3.141341 5.427127 21.383861 6.209721 0.000015 0.000003 0.000004 -0.000002 0.000001 -0.000001 -20.074500 10.268751 -30.794314 1.778152 2.356953 -23.343164 -0.000002 0.000004 0.000007 0.000000 -0.000000 -0.000004 -15.072583 8.273850 -20.799777 3.828536 6.782745 -35.108149 -0.000000 -0.000003 0.000010 -0.000000 -0.000001 -0.000000 -8.340551 6.601204 -8.757929 3.964093 6.996795 -37.699226 -0.000009 -0.000002 0.000009 0.000000 -0.000000 0.000009 -2.810718 11.536812 -5.714944 2.562124 6.671084 -28.589997 0.000003 -0.000006 -0.000013 0.000000 -0.000002 -0.000002 3.681174 13.289170 7.936706 -3.958450 -14.091981 69.160139 28.127339 16.079701 -3.212920 -8.637371 -1.034623 -10.499973 -21.991988 -17.035482 2.009221 5.703661 -22.367042 -5.520848 -0.000010 0.000003 -0.000004 -0.000001 -0.000002 -0.000004 -2.899137 -12.801063 7.221837 2.738671 -6.813214 29.837787 -0.000010 0.000016 -0.000006 -0.000001 -0.000003 -0.000001 -8.983069 -7.076422 9.538893 4.275403 -7.169930 39.704054 0.000015 -0.000006 -0.000012 0.000001 0.000000 -0.000009 -16.256658 -8.649580 21.626356 4.109554 -6.928337 36.756291 0.000000 0.000001 0.000010 0.000001 -0.000000 -0.000003 -21.809416 -10.568755 31.865950 1.910732 -2.505937 24.353688 0.000005 -0.000003 0.000005 0.000001 0.000002 0.000004 12.234500 14.813401 -13.472706 6.760474 0.110142 -0.210558 -8.042152 -0.756494 3.785696 -0.000000 -0.000002 -0.000001 0.000000 0.000001 -0.000000 -4.572996 -14.329523 -25.739141 25.961196 2.052180 1.076300 -13.040223 -11.166681 9.289541 -0.000184 0.000007 0.000473 -0.000000 -0.000002 0.000000 
-3.011068 92.130432 1.392414 -9.329360 -5.801047 8.800723 2.583552 1.276510 -5.325103 5.022534 1.542500 -2.901659 5.039975 1.497361 -2.895451 0.833937 0.541718 -7.767021 -3.645744 -1.767957 -1.652179 -0.000000 -0.000000 -0.000001 3.608880 -17.320810 -4.604406 7.444933 11.510782 -67.514719 -10.266170 -35.734918 -10.328481 -8.179237 -4.647935 9.986552 -27.356390 15.883617 -4.533640 5.120974 20.288317 6.978662 0.000014 -0.000001 0.000002 -0.000000 0.000001 -0.000002 -18.120576 10.019967 -29.606042 1.632518 2.187160 -22.210621 -0.000001 0.000007 0.000007 0.000002 -0.000001 -0.000002 -13.734636 7.899561 -19.867555 3.517061 6.605654 -33.261167 0.000002 0.000000 0.000014 0.000000 0.000002 0.000005 -7.606754 6.090105 -7.871456 3.619651 6.785585 -35.455485 -0.000009 -0.000001 0.000014 -0.000001 -0.000000 0.000004 -2.635369 10.126660 -4.032048 2.366815 6.503858 -27.192136 0.000002 -0.000004 -0.000015 -0.000001 0.000001 0.000001 3.606470 14.507679 6.484840 -2.389729 -15.346177 71.414948 30.311399 21.233743 -7.703467 -9.012016 -1.558651 -14.563826 -21.991988 -17.035477 2.009211 5.703645 -22.367051 -5.520883 -0.000010 0.000009 0.000001 -0.000000 -0.000001 0.000004 -2.899135 -12.801053 7.221812 2.738679 -6.813220 29.837804 -0.000008 0.000012 -0.000001 -0.000001 -0.000001 -0.000001 -8.983071 -7.076403 9.538873 4.275413 -7.169937 39.704067 0.000014 -0.000005 -0.000011 0.000000 0.000000 -0.000009 -16.256661 -8.649587 21.626332 4.109571 -6.928332 36.756311 0.000000 0.000001 0.000003 -0.000000 -0.000000 -0.000003 -21.809416 -10.568746 31.865933 1.910736 -2.505946 24.353745 0.000006 -0.000003 0.000002 0.000001 0.000000 0.000000 12.323738 14.880957 -13.668354 7.308427 0.090656 -0.189875 -8.415037 -0.647591 3.790921 -0.000000 -0.000002 -0.000001 -0.000000 0.000000 0.000000 -4.665749 -13.862202 -26.034721 26.773918 2.094888 1.095341 -13.476277 -11.325925 9.326597 -0.000184 0.000005 0.000473 -0.000000 0.000000 -0.000000 
